<svg xmlns="http://www.w3.org/2000/svg" xmlns:xlink="http://www.w3.org/1999/xlink" width="840" height="711.3"><rect width="840" height="711.3" rx="5" ry="5" class="a"/><svg y="0%" x="0%"><circle cx="20" cy="20" r="6" fill="#ff5f58"/><circle cx="40" cy="20" r="6" fill="#ffbd2e"/><circle cx="60" cy="20" r="6" fill="#18c132"/></svg><svg height="651.3" viewBox="0 0 80 65.13" width="800" x="15" xmlns="http://www.w3.org/2000/svg" xmlns:xlink="http://www.w3.org/1999/xlink" y="50"><style>@keyframes j{0%{transform:translateX(0)}.01%{transform:translateX(-160px)}9.62%{transform:translateX(-240px)}12.84%{transform:translateX(-320px)}22.44%{transform:translateX(-400px)}28.85%{transform:translateX(-480px)}32.3%{transform:translateX(-640px)}32.31%{transform:translateX(-880px)}38.74%{transform:translateX(-960px)}42.07%{transform:translateX(-1200px)}42.08%{transform:translateX(-1280px)}42.1%{transform:translateX(-1520px)}48.52%{transform:translateX(-1600px)}51.74%{transform:translateX(-1680px)}64.56%{transform:translateX(-1760px)}67.77%{transform:translateX(-1840px)}71.09%{transform:translateX(-1920px)}77.5%{transform:translateX(-2000px)}87.1%{transform:translateX(-2080px)}90.37%{transform:translateX(-2160px)}to{transform:translateX(-2320px)}}.a{fill:#282d35}.f,.g{fill:#b9c0cb;white-space:pre}.g{fill:#66c2cd;font-weight:700}</style><g font-family="Monaco,Consolas,Menlo,'Bitstream Vera Sans Mono','Powerline Symbols',monospace" font-size="1.67"><defs><symbol id="1"><text x="2.004" y="1.67" class="f">╔═══════════════════════════════════════════════════╗</text></symbol><symbol id="2"><text x="2.004" y="1.67" class="f">║</text><text x="54.108" y="1.67" class="f">║</text></symbol><symbol id="3"><text x="2.004" y="1.67" class="f">║</text><text x="6.012" y="1.67" class="f">🛡️</text><text x="11.022" y="1.67" class="f">MCP</text><text x="15.03" y="1.67" class="f">Shield</text><text x="22.044" y="1.67" class="f">Demo</text><text x="55.11" y="1.67" class="f">║</text></symbol><symbol id="4"><text x="2.004" y="1.67" class="f">║</text><text x="6.012" y="1.67" class="f">One-command</text><text x="18.036" y="1.67" class="f">security</text><text x="27.054" y="1.67" class="f">for</text><text x="31.062" y="1.67" class="f">MCP</text><text x="35.07" y="1.67" class="f">servers</text><text x="54.108" y="1.67" class="f">║</text></symbol><symbol id="5"><text x="2.004" y="1.67" class="f">║</text><text x="6.012" y="1.67" class="f">Powered</text><text x="14.028" y="1.67" class="f">by</text><text x="17.034" y="1.67" class="f">agentgateway</text><text x="54.108" y="1.67" class="f">║</text></symbol><symbol id="6"><text x="2.004" y="1.67" class="f">╚═══════════════════════════════════════════════════╝</text></symbol><symbol id="7"><text x="2.004" y="1.67" class="f">📋</text><text x="5.01" y="1.67" class="f">Step</text><text x="10.02" y="1.67" class="f">1:</text><text x="13.026" y="1.67" class="f">Here&apos;s</text><text x="20.04" y="1.67" class="f">a</text><text x="22.044" y="1.67" class="f">typical</text><text x="30.06" y="1.67" class="f">insecure</text><text x="39.078" y="1.67" class="f">MCP</text><text x="43.086" y="1.67" class="f">setup</text></symbol><symbol id="8"><text y="1.67" class="f">{</text></symbol><symbol id="9"><text x="2.004" y="1.67" class="f">&quot;mcpServers&quot;:</text><text x="16.032" y="1.67" class="f">{</text></symbol><symbol id="10"><text x="4.008" y="1.67" class="f">&quot;filesystem&quot;:</text><text x="18.036" y="1.67" class="f">{</text></symbol><symbol id="11"><text x="6.012" y="1.67" class="f">&quot;command&quot;:</text><text x="17.034" y="1.67" class="f">&quot;npx&quot;,</text></symbol><symbol id="12"><text x="6.012" y="1.67" class="f">&quot;args&quot;:</text><text x="14.028" y="1.67" class="f">[&quot;-y&quot;,</text><text x="21.042" y="1.67" class="f">&quot;@modelcontextprotocol/server-filesystem&quot;,</text><text x="64.128" y="1.67" class="f">&quot;/tmp&quot;]</text></symbol><symbol id="13"><text x="4.008" y="1.67" class="f">},</text></symbol><symbol id="14"><text x="4.008" y="1.67" class="f">&quot;memory&quot;:</text><text x="14.028" y="1.67" class="f">{</text></symbol><symbol id="15"><text x="6.012" y="1.67" class="f">&quot;args&quot;:</text><text x="14.028" y="1.67" class="f">[&quot;-y&quot;,</text><text x="21.042" y="1.67" class="f">&quot;@modelcontextprotocol/server-memory&quot;]</text></symbol><symbol id="16"><text x="4.008" y="1.67" class="f">&quot;github&quot;:</text><text x="14.028" y="1.67" class="f">{</text></symbol><symbol id="17"><text x="6.012" y="1.67" class="f">&quot;args&quot;:</text><text x="14.028" y="1.67" class="f">[&quot;-y&quot;,</text><text x="21.042" y="1.67" class="f">&quot;@modelcontextprotocol/server-github&quot;],</text></symbol><symbol id="18"><text x="6.012" y="1.67" class="f">&quot;env&quot;:</text><text x="13.026" y="1.67" class="f">{</text></symbol><symbol id="19"><text x="8.016" y="1.67" class="f">&quot;GITHUB_PERSONAL_ACCESS_TOKEN&quot;:</text><text x="40.08" y="1.67" class="f">&quot;ghp_xxxxx&quot;</text></symbol><symbol id="20"><text x="6.012" y="1.67" class="f">}</text></symbol><symbol id="21"><text x="4.008" y="1.67" class="f">}</text></symbol><symbol id="22"><text x="2.004" y="1.67" class="f">}</text></symbol><symbol id="23"><text y="1.67" class="f">}</text></symbol><symbol id="24"><text x="2.004" y="1.67" class="f">⚠️</text><text x="6.012" y="1.67" class="f">Problem:</text><text x="15.03" y="1.67" class="f">No</text><text x="18.036" y="1.67" class="f">auth,</text><text x="24.048" y="1.67" class="f">no</text><text x="27.054" y="1.67" class="f">rate</text><text x="32.064" y="1.67" class="f">limits,</text><text x="40.08" y="1.67" class="f">no</text><text x="43.086" y="1.67" class="f">logging!</text></symbol><symbol id="25"><text y="1.67" class="g">$</text><text x="2.004" y="1.67" class="g">node</text><text x="7.014" y="1.67" class="g">dist/index.js</text><text x="21.042" y="1.67" class="g">scan</text><text x="26.052" y="1.67" class="g">-f</text><text x="29.058" y="1.67" class="g">demo/sample-config.json</text></symbol><symbol id="26"><text y="1.67" class="f">🔍</text><text x="3.006" y="1.67" class="f">Scanning</text><text x="12.024" y="1.67" class="f">for</text><text x="16.032" y="1.67" class="f">MCP</text><text x="20.04" y="1.67" class="f">server</text><text x="27.054" y="1.67" class="f">configurations...</text></symbol><symbol id="27"><text x="2.004" y="1.67" class="f">📁</text><text x="5.01" y="1.67" class="f">Source:</text><text x="14.028" y="1.67" class="f">claude-desktop</text></symbol><symbol id="28"><text x="2.004" y="1.67" class="f">📄</text><text x="5.01" y="1.67" class="f">File:</text><text x="14.028" y="1.67" class="f">demo/sample-config.json</text></symbol><symbol id="29"><text x="2.004" y="1.67" class="f">🔧</text><text x="5.01" y="1.67" class="f">Servers:</text><text x="14.028" y="1.67" class="f">3</text><text x="16.032" y="1.67" class="f">found</text></symbol><symbol id="30"><text x="2.004" y="1.67" class="f">┌─────────────────────────────────────────────────────────┐</text></symbol><symbol id="31"><text x="2.004" y="1.67" class="f">│</text><text x="4.008" y="1.67" class="f">MCP</text><text x="8.016" y="1.67" class="f">Servers</text><text x="59.118" y="1.67" class="f">│</text></symbol><symbol id="32"><text x="2.004" y="1.67" class="f">├────────────────────┬──────────┬────────────────────────┤</text></symbol><symbol id="33"><text x="2.004" y="1.67" class="f">│</text><text x="4.008" y="1.67" class="f">Name</text><text x="23.046" y="1.67" class="f">│</text><text x="25.05" y="1.67" class="f">Type</text><text x="34.068" y="1.67" class="f">│</text><text x="36.072" y="1.67" class="f">Command/URL</text><text x="59.118" y="1.67" class="f">│</text></symbol><symbol id="34"><text x="2.004" y="1.67" class="f">├────────────────────┼──────────┼────────────────────────┤</text></symbol><symbol id="35"><text x="2.004" y="1.67" class="f">│</text><text x="4.008" y="1.67" class="f">filesystem</text><text x="23.046" y="1.67" class="f">│</text><text x="25.05" y="1.67" class="f">stdio</text><text x="34.068" y="1.67" class="f">│</text><text x="36.072" y="1.67" class="f">npx</text><text x="59.118" y="1.67" class="f">│</text></symbol><symbol id="36"><text x="2.004" y="1.67" class="f">│</text><text x="4.008" y="1.67" class="f">memory</text><text x="23.046" y="1.67" class="f">│</text><text x="25.05" y="1.67" class="f">stdio</text><text x="34.068" y="1.67" class="f">│</text><text x="36.072" y="1.67" class="f">npx</text><text x="59.118" y="1.67" class="f">│</text></symbol><symbol id="37"><text x="2.004" y="1.67" class="f">│</text><text x="4.008" y="1.67" class="f">github</text><text x="23.046" y="1.67" class="f">│</text><text x="25.05" y="1.67" class="f">stdio</text><text x="34.068" y="1.67" class="f">│</text><text x="36.072" y="1.67" class="f">npx</text><text x="59.118" y="1.67" class="f">│</text></symbol><symbol id="38"><text x="2.004" y="1.67" class="f">└────────────────────┴──────────┴────────────────────────┘</text></symbol><symbol id="39"><text x="2.004" y="1.67" class="f">⚠️</text><text x="6.012" y="1.67" class="f">Security</text><text x="15.03" y="1.67" class="f">Assessment:</text></symbol><symbol id="40"><text x="4.008" y="1.67" class="f">•</text><text x="6.012" y="1.67" class="f">Authentication:</text><text x="23.046" y="1.67" class="f">NONE</text><text x="28.056" y="1.67" class="f">—</text><text x="30.06" y="1.67" class="f">any</text><text x="34.068" y="1.67" class="f">client</text><text x="41.082" y="1.67" class="f">can</text><text x="45.09" y="1.67" class="f">connect</text></symbol><symbol id="41"><text x="4.008" y="1.67" class="f">•</text><text x="6.012" y="1.67" class="f">Rate</text><text x="11.022" y="1.67" class="f">Limiting:</text><text x="23.046" y="1.67" class="f">NONE</text><text x="28.056" y="1.67" class="f">—</text><text x="30.06" y="1.67" class="f">no</text><text x="33.066" y="1.67" class="f">protection</text><text x="44.088" y="1.67" class="f">against</text><text x="52.104" y="1.67" class="f">abuse</text></symbol><symbol id="42"><text x="4.008" y="1.67" class="f">•</text><text x="6.012" y="1.67" class="f">Audit</text><text x="12.024" y="1.67" class="f">Logging:</text><text x="23.046" y="1.67" class="f">NONE</text><text x="28.056" y="1.67" class="f">—</text><text x="30.06" y="1.67" class="f">no</text><text x="33.066" y="1.67" class="f">visibility</text><text x="44.088" y="1.67" class="f">into</text><text x="49.098" y="1.67" class="f">tool</text><text x="54.108" y="1.67" class="f">usage</text></symbol><symbol id="43"><text x="4.008" y="1.67" class="f">•</text><text x="6.012" y="1.67" class="f">Input</text><text x="12.024" y="1.67" class="f">Validation:</text><text x="24.048" y="1.67" class="f">NONE</text><text x="29.058" y="1.67" class="f">—</text><text x="31.062" y="1.67" class="f">tool</text><text x="36.072" y="1.67" class="f">arguments</text><text x="46.092" y="1.67" class="f">pass</text><text x="51.102" y="1.67" class="f">unchecked</text></symbol><symbol id="44"><text x="2.004" y="1.67" class="f">💡</text><text x="5.01" y="1.67" class="f">Run</text><text x="9.018" y="1.67" class="f">&apos;mcp-shield</text><text x="21.042" y="1.67" class="f">secure&apos;</text><text x="29.058" y="1.67" class="f">to</text><text x="32.064" y="1.67" class="f">generate</text><text x="41.082" y="1.67" class="f">a</text><text x="43.086" y="1.67" class="f">secured</text><text x="51.102" y="1.67" class="f">configuration.</text></symbol><symbol id="45"><text y="1.67" class="g">$</text><text x="2.004" y="1.67" class="g">node</text><text x="7.014" y="1.67" class="g">dist/index.js</text><text x="21.042" y="1.67" class="g">secure</text><text x="28.056" y="1.67" class="g">-f</text><text x="31.062" y="1.67" class="g">demo/sample-config.json</text><text x="55.11" y="1.67" class="g">--rate-limit</text><text x="68.136" y="1.67" class="g">60</text></symbol><symbol id="46"><text y="1.67" class="f">🛡️</text><text x="5.01" y="1.67" class="f">MCP</text><text x="9.018" y="1.67" class="f">Shield</text><text x="16.032" y="1.67" class="f">—</text><text x="18.036" y="1.67" class="f">Generating</text><text x="29.058" y="1.67" class="f">secured</text><text x="37.074" y="1.67" class="f">configuration...</text></symbol><symbol id="47"><text x="2.004" y="1.67" class="f">📁</text><text x="5.01" y="1.67" class="f">Found</text><text x="11.022" y="1.67" class="f">3</text><text x="13.026" y="1.67" class="f">MCP</text><text x="17.034" y="1.67" class="f">server(s)</text><text x="27.054" y="1.67" class="f">from</text><text x="32.064" y="1.67" class="f">claude-desktop</text></symbol><symbol id="48"><text x="2.004" y="1.67" class="f">🔐</text><text x="5.01" y="1.67" class="f">Generating</text><text x="16.032" y="1.67" class="f">JWT</text><text x="20.04" y="1.67" class="f">keypair</text><text x="28.056" y="1.67" class="f">for</text><text x="32.064" y="1.67" class="f">authentication...</text></symbol><symbol id="49"><text x="5.01" y="1.67" class="f">Public</text><text x="12.024" y="1.67" class="f">key:</text><text x="18.036" y="1.67" class="f">mcp-shield-output/keys/pub-key</text></symbol><symbol id="50"><text x="5.01" y="1.67" class="f">Private</text><text x="13.026" y="1.67" class="f">key:</text><text x="18.036" y="1.67" class="f">mcp-shield-output/keys/priv-key.pem</text></symbol><symbol id="51"><text x="2.004" y="1.67" class="f">✅</text><text x="4.008" y="1.67" class="f">Secured</text><text x="12.024" y="1.67" class="f">configuration</text><text x="26.052" y="1.67" class="f">generated!</text></symbol><symbol id="52"><text x="2.004" y="1.67" class="f">📂</text><text x="5.01" y="1.67" class="f">Output</text><text x="12.024" y="1.67" class="f">files:</text></symbol><symbol id="53"><text x="5.01" y="1.67" class="f">mcp-shield-output/gateway-config.yaml</text><text x="44.088" y="1.67" class="f">—</text><text x="46.092" y="1.67" class="f">agentgateway</text><text x="59.118" y="1.67" class="f">configuration</text></symbol><symbol id="54"><text x="5.01" y="1.67" class="f">mcp-shield-output/claude_desktop_config.json</text><text x="51.102" y="1.67" class="f">—</text><text x="53.106" y="1.67" class="f">client</text><text x="60.12" y="1.67" class="f">config</text><text x="67.134" y="1.67" class="f">(points</text><text x="75.15" y="1.67" class="f">to</text><text x="78.156" y="1.67" class="f">ga</text></symbol><symbol id="55"><text y="1.67" class="f">teway)</text></symbol><symbol id="56"><text x="5.01" y="1.67" class="f">mcp-shield-output/keys/</text><text x="30.06" y="1.67" class="f">—</text><text x="32.064" y="1.67" class="f">JWT</text><text x="36.072" y="1.67" class="f">keypair</text></symbol><symbol id="57"><text x="2.004" y="1.67" class="f">🚀</text><text x="5.01" y="1.67" class="f">To</text><text x="8.016" y="1.67" class="f">start</text><text x="14.028" y="1.67" class="f">the</text><text x="18.036" y="1.67" class="f">secured</text><text x="26.052" y="1.67" class="f">gateway:</text></symbol><symbol id="58"><text x="5.01" y="1.67" class="f">agentgateway</text><text x="18.036" y="1.67" class="f">-f</text><text x="21.042" y="1.67" class="f">mcp-shield-output/gateway-config.yaml</text></symbol><symbol id="59"><text x="2.004" y="1.67" class="f">Then</text><text x="7.014" y="1.67" class="f">update</text><text x="14.028" y="1.67" class="f">your</text><text x="19.038" y="1.67" class="f">IDE</text><text x="23.046" y="1.67" class="f">to</text><text x="26.052" y="1.67" class="f">use</text><text x="30.06" y="1.67" class="f">the</text><text x="34.068" y="1.67" class="f">gateway</text><text x="42.084" y="1.67" class="f">endpoint:</text></symbol><symbol id="60"><text x="5.01" y="1.67" class="f">http://localhost:3000/mcp</text></symbol><symbol id="61"><text x="2.004" y="1.67" class="f">🛡️</text><text x="7.014" y="1.67" class="f">Security</text><text x="16.032" y="1.67" class="f">features</text><text x="25.05" y="1.67" class="f">enabled:</text></symbol><symbol id="62"><text x="5.01" y="1.67" class="f">•</text><text x="7.014" y="1.67" class="f">Authentication:</text><text x="24.048" y="1.67" class="f">STRICT</text></symbol><symbol id="63"><text x="5.01" y="1.67" class="f">•</text><text x="7.014" y="1.67" class="f">Rate</text><text x="12.024" y="1.67" class="f">Limiting:</text><text x="24.048" y="1.67" class="f">60</text><text x="27.054" y="1.67" class="f">req/min</text></symbol><symbol id="64"><text x="5.01" y="1.67" class="f">•</text><text x="7.014" y="1.67" class="f">CORS:</text><text x="24.048" y="1.67" class="f">configured</text></symbol><symbol id="65"><text x="5.01" y="1.67" class="f">•</text><text x="7.014" y="1.67" class="f">Audit</text><text x="13.026" y="1.67" class="f">Logging:</text><text x="24.048" y="1.67" class="f">enabled</text></symbol><symbol id="66"><text x="5.01" y="1.67" class="f">•</text><text x="7.014" y="1.67" class="f">Federation:</text><text x="24.048" y="1.67" class="f">3</text><text x="26.052" y="1.67" class="f">servers</text><text x="34.068" y="1.67" class="f">→</text><text x="36.072" y="1.67" class="f">1</text><text x="38.076" y="1.67" class="f">endpoint</text></symbol><symbol id="67"><text x="2.004" y="1.67" class="f">🚀</text><text x="5.01" y="1.67" class="f">Step</text><text x="10.02" y="1.67" class="f">4:</text><text x="13.026" y="1.67" class="f">Start</text><text x="19.038" y="1.67" class="f">the</text><text x="23.046" y="1.67" class="f">secured</text><text x="31.062" y="1.67" class="f">gateway</text></symbol><symbol id="68"><text y="1.67" class="g">$</text><text x="2.004" y="1.67" class="g">mcp-shield</text><text x="13.026" y="1.67" class="g">start</text></symbol><symbol id="69"><text x="2.004" y="1.67" class="f">✅</text><text x="4.008" y="1.67" class="f">Gateway</text><text x="12.024" y="1.67" class="f">started</text><text x="20.04" y="1.67" class="f">on</text><text x="23.046" y="1.67" class="f">port</text><text x="28.056" y="1.67" class="f">3000</text></symbol><symbol id="70"><text x="2.004" y="1.67" class="f">🔍</text><text x="5.01" y="1.67" class="f">Step</text><text x="10.02" y="1.67" class="f">5:</text><text x="13.026" y="1.67" class="f">Test</text><text x="18.036" y="1.67" class="f">security</text><text x="27.054" y="1.67" class="f">—</text><text x="29.058" y="1.67" class="f">unauthenticated</text><text x="45.09" y="1.67" class="f">request</text></symbol><symbol id="71"><text y="1.67" class="g">$</text><text x="2.004" y="1.67" class="g">curl</text><text x="7.014" y="1.67" class="g">-s</text><text x="10.02" y="1.67" class="g">-w</text><text x="13.026" y="1.67" class="g">&apos;</text></symbol><symbol id="72"><text y="1.67" class="g">HTTP</text><text x="5.01" y="1.67" class="g">%{http_code}&apos;</text><text x="19.038" y="1.67" class="g">-X</text><text x="22.044" y="1.67" class="g">POST</text><text x="27.054" y="1.67" class="g">http://localhost:3000/mcp</text><text x="53.106" y="1.67" class="g">...</text></symbol><symbol id="73"><text y="1.67" class="f">{&quot;error&quot;:&quot;unauthorized&quot;,&quot;error_description&quot;:&quot;JWT</text><text x="49.098" y="1.67" class="f">token</text><text x="55.11" y="1.67" class="f">required&quot;}</text></symbol><symbol id="74"><text y="1.67" class="f">HTTP</text><text x="5.01" y="1.67" class="f">401</text></symbol><symbol id="75"><text x="2.004" y="1.67" class="f">✅</text><text x="4.008" y="1.67" class="f">Request</text><text x="12.024" y="1.67" class="f">blocked</text><text x="20.04" y="1.67" class="f">with</text><text x="25.05" y="1.67" class="f">401</text><text x="29.058" y="1.67" class="f">—</text><text x="31.062" y="1.67" class="f">authentication</text><text x="46.092" y="1.67" class="f">required!</text></symbol><symbol id="76"><text x="2.004" y="1.67" class="f">📖</text><text x="5.01" y="1.67" class="f">Step</text><text x="10.02" y="1.67" class="f">6:</text><text x="13.026" y="1.67" class="f">OAuth</text><text x="19.038" y="1.67" class="f">discovery</text><text x="29.058" y="1.67" class="f">metadata</text><text x="38.076" y="1.67" class="f">is</text><text x="41.082" y="1.67" class="f">available</text></symbol><symbol id="77"><text y="1.67" class="g">$</text><text x="2.004" y="1.67" class="g">curl</text><text x="7.014" y="1.67" class="g">-s</text><text x="10.02" y="1.67" class="g">http://localhost:3000/.well-known/oauth-protected-resource/mcp</text><text x="73.146" y="1.67" class="g">|</text><text x="75.15" y="1.67" class="g">jq</text></symbol><symbol id="78"><text x="4.008" y="1.67" class="f">&quot;resource&quot;:</text><text x="16.032" y="1.67" class="f">&quot;http://localhost:3000/mcp&quot;,</text></symbol><symbol id="79"><text x="4.008" y="1.67" class="f">&quot;authorization_servers&quot;:</text><text x="29.058" y="1.67" class="f">[</text></symbol><symbol id="80"><text x="8.016" y="1.67" class="f">&quot;mcp-shield&quot;</text></symbol><symbol id="81"><text x="4.008" y="1.67" class="f">],</text></symbol><symbol id="82"><text x="4.008" y="1.67" class="f">&quot;mcp_protocol_version&quot;:</text><text x="28.056" y="1.67" class="f">&quot;2025-06-18&quot;,</text></symbol><symbol id="83"><text x="4.008" y="1.67" class="f">&quot;resource_type&quot;:</text><text x="21.042" y="1.67" class="f">&quot;mcp-server&quot;,</text></symbol><symbol id="84"><text x="4.008" y="1.67" class="f">&quot;bearer_methods_supported&quot;:</text><text x="32.064" y="1.67" class="f">[</text></symbol><symbol id="85"><text x="8.016" y="1.67" class="f">&quot;header&quot;</text></symbol><symbol id="86"><text x="4.008" y="1.67" class="f">&quot;scopes_supported&quot;:</text><text x="24.048" y="1.67" class="f">[</text></symbol><symbol id="87"><text x="8.016" y="1.67" class="f">&quot;read:all&quot;,</text></symbol><symbol id="88"><text x="8.016" y="1.67" class="f">&quot;write:all&quot;,</text></symbol><symbol id="89"><text x="8.016" y="1.67" class="f">&quot;admin&quot;</text></symbol><symbol id="90"><text x="4.008" y="1.67" class="f">]</text></symbol><symbol id="91"><text x="2.004" y="1.67" class="f">║</text><text x="6.012" y="1.67" class="f">✅</text><text x="8.016" y="1.67" class="f">MCP</text><text x="12.024" y="1.67" class="f">servers</text><text x="20.04" y="1.67" class="f">are</text><text x="24.048" y="1.67" class="f">now</text><text x="28.056" y="1.67" class="f">secured!</text><text x="54.108" y="1.67" class="f">║</text></symbol><symbol id="92"><text x="2.004" y="1.67" class="f">║</text><text x="6.012" y="1.67" class="f">•</text><text x="8.016" y="1.67" class="f">JWT</text><text x="12.024" y="1.67" class="f">Authentication</text><text x="27.054" y="1.67" class="f">(strict</text><text x="35.07" y="1.67" class="f">mode)</text><text x="54.108" y="1.67" class="f">║</text></symbol><symbol id="93"><text x="2.004" y="1.67" class="f">║</text><text x="6.012" y="1.67" class="f">•</text><text x="8.016" y="1.67" class="f">Rate</text><text x="13.026" y="1.67" class="f">Limiting</text><text x="22.044" y="1.67" class="f">(60</text><text x="26.052" y="1.67" class="f">req/min)</text><text x="54.108" y="1.67" class="f">║</text></symbol><symbol id="94"><text x="2.004" y="1.67" class="f">║</text><text x="6.012" y="1.67" class="f">•</text><text x="8.016" y="1.67" class="f">CORS</text><text x="13.026" y="1.67" class="f">configured</text><text x="54.108" y="1.67" class="f">║</text></symbol><symbol id="95"><text x="2.004" y="1.67" class="f">║</text><text x="6.012" y="1.67" class="f">•</text><text x="8.016" y="1.67" class="f">3</text><text x="10.02" y="1.67" class="f">servers</text><text x="18.036" y="1.67" class="f">federated</text><text x="28.056" y="1.67" class="f">→</text><text x="30.06" y="1.67" class="f">1</text><text x="32.064" y="1.67" class="f">endpoint</text><text x="54.108" y="1.67" class="f">║</text></symbol><symbol id="96"><text x="2.004" y="1.67" class="f">║</text><text x="6.012" y="1.67" class="f">•</text><text x="8.016" y="1.67" class="f">OAuth</text><text x="14.028" y="1.67" class="f">discovery</text><text x="24.048" y="1.67" class="f">metadata</text><text x="54.108" y="1.67" class="f">║</text></symbol><symbol id="97"><text x="2.004" y="1.67" class="f">║</text><text x="6.012" y="1.67" class="f">github.com/bcornish1797/mcp-shield</text><text x="54.108" y="1.67" class="f">║</text></symbol><symbol id="a"><path fill="transparent" d="M0 0h80v31H0z"/></symbol><symbol id="b"><path fill="#6f7683" d="M0 0h1.102v2.171H0z"/></symbol></defs><path class="a" d="M0 0h80v65.13H0z"/><g style="animation-duration:31.244182s;animation-iteration-count:infinite;animation-name:j;animation-timing-function:steps(1,end)"><svg width="2400"><svg><use xlink:href="#a"/><use xlink:href="#b" x="-.004"/></svg><svg x="80"><use xlink:href="#a"/><use xlink:href="#b" x="-.004"/></svg><svg x="160"><use xlink:href="#a"/><use xlink:href="#b" x="-.004" y="19.514"/><use xlink:href="#1" y="2.171"/><use xlink:href="#2" y="4.342"/><use xlink:href="#3" y="6.513"/><use xlink:href="#4" y="8.684"/><use xlink:href="#5" y="10.855"/><use xlink:href="#2" y="13.026"/><use xlink:href="#6" y="15.197"/></svg><svg x="240"><use xlink:href="#a"/><use xlink:href="#b" x="-.004" y="23.856"/><use xlink:href="#1" y="2.171"/><use xlink:href="#2" y="4.342"/><use xlink:href="#3" y="6.513"/><use xlink:href="#4" y="8.684"/><use xlink:href="#5" y="10.855"/><use xlink:href="#2" y="13.026"/><use xlink:href="#6" y="15.197"/><use xlink:href="#7" y="19.539"/></svg><svg x="320"><use xlink:href="#a"/><use xlink:href="#b" x="-.004" y="65.105"/><use xlink:href="#1" y="2.171"/><use xlink:href="#2" y="4.342"/><use xlink:href="#3" y="6.513"/><use xlink:href="#4" y="8.684"/><use xlink:href="#5" y="10.855"/><use xlink:href="#2" y="13.026"/><use xlink:href="#6" y="15.197"/><use xlink:href="#7" y="19.539"/><use xlink:href="#8" y="23.881"/><use xlink:href="#9" y="26.052"/><use xlink:href="#10" y="28.223"/><use xlink:href="#11" y="30.394"/><use xlink:href="#12" y="32.565"/><use xlink:href="#13" y="34.736"/><use xlink:href="#14" y="36.907"/><use xlink:href="#11" y="39.078"/><use xlink:href="#15" y="41.249"/><use xlink:href="#13" y="43.42"/><use xlink:href="#16" y="45.591"/><use xlink:href="#11" y="47.762"/><use xlink:href="#17" y="49.933"/><use xlink:href="#18" y="52.104"/><use xlink:href="#19" y="54.275"/><use xlink:href="#20" y="56.446"/><use xlink:href="#21" y="58.617"/><use xlink:href="#22" y="60.788"/><use xlink:href="#23" y="62.959"/></svg><svg x="400"><use xlink:href="#a"/><use xlink:href="#b" x="-.004" y="65.105"/><use xlink:href="#3"/><use xlink:href="#4" y="2.171"/><use xlink:href="#5" y="4.342"/><use xlink:href="#2" y="6.513"/><use xlink:href="#6" y="8.684"/><use xlink:href="#7" y="13.026"/><use xlink:href="#8" y="17.368"/><use xlink:href="#9" y="19.539"/><use xlink:href="#10" y="21.71"/><use xlink:href="#11" y="23.881"/><use xlink:href="#12" y="26.052"/><use xlink:href="#13" y="28.223"/><use xlink:href="#14" y="30.394"/><use xlink:href="#11" y="32.565"/><use xlink:href="#15" y="34.736"/><use xlink:href="#13" y="36.907"/><use xlink:href="#16" y="39.078"/><use xlink:href="#11" y="41.249"/><use xlink:href="#17" y="43.42"/><use xlink:href="#18" y="45.591"/><use xlink:href="#19" y="47.762"/><use xlink:href="#20" y="49.933"/><use xlink:href="#21" y="52.104"/><use xlink:href="#22" y="54.275"/><use xlink:href="#23" y="56.446"/><use xlink:href="#24" y="60.788"/></svg><svg x="480"><use xlink:href="#a"/><use xlink:href="#b" x="-.004" y="65.105"/><use xlink:href="#5"/><use xlink:href="#2" y="2.171"/><use xlink:href="#6" y="4.342"/><use xlink:href="#7" y="8.684"/><use xlink:href="#8" y="13.026"/><use xlink:href="#9" y="15.197"/><use xlink:href="#10" y="17.368"/><use xlink:href="#11" y="19.539"/><use xlink:href="#12" y="21.71"/><use xlink:href="#13" y="23.881"/><use xlink:href="#14" y="26.052"/><use xlink:href="#11" y="28.223"/><use xlink:href="#15" y="30.394"/><use xlink:href="#13" y="32.565"/><use xlink:href="#16" y="34.736"/><use xlink:href="#11" y="36.907"/><use xlink:href="#17" y="39.078"/><use xlink:href="#18" y="41.249"/><use xlink:href="#19" y="43.42"/><use xlink:href="#20" y="45.591"/><use xlink:href="#21" y="47.762"/><use xlink:href="#22" y="49.933"/><use xlink:href="#23" y="52.104"/><use xlink:href="#24" y="56.446"/><use xlink:href="#25" y="62.959"/></svg><svg x="560"><use xlink:href="#a"/><use xlink:href="#b" x="-.004" y="65.105"/><use xlink:href="#7" y="2.171"/><use xlink:href="#8" y="6.513"/><use xlink:href="#9" y="8.684"/><use xlink:href="#10" y="10.855"/><use xlink:href="#11" y="13.026"/><use xlink:href="#12" y="15.197"/><use xlink:href="#13" y="17.368"/><use xlink:href="#14" y="19.539"/><use xlink:href="#11" y="21.71"/><use xlink:href="#15" y="23.881"/><use xlink:href="#13" y="26.052"/><use xlink:href="#16" y="28.223"/><use xlink:href="#11" y="30.394"/><use xlink:href="#17" y="32.565"/><use xlink:href="#18" y="34.736"/><use xlink:href="#19" y="36.907"/><use xlink:href="#20" y="39.078"/><use xlink:href="#21" y="41.249"/><use xlink:href="#22" y="43.42"/><use xlink:href="#23" y="45.591"/><use xlink:href="#24" y="49.933"/><use xlink:href="#25" y="56.446"/><use xlink:href="#26" y="60.788"/></svg><svg x="640"><use xlink:href="#a"/><use xlink:href="#b" x="-.004" y="65.105"/><use xlink:href="#15"/><use xlink:href="#13" y="2.171"/><use xlink:href="#16" y="4.342"/><use xlink:href="#11" y="6.513"/><use xlink:href="#17" y="8.684"/><use xlink:href="#18" y="10.855"/><use xlink:href="#19" y="13.026"/><use xlink:href="#20" y="15.197"/><use xlink:href="#21" y="17.368"/><use xlink:href="#22" y="19.539"/><use xlink:href="#23" y="21.71"/><use xlink:href="#24" y="26.052"/><use xlink:href="#25" y="32.565"/><use xlink:href="#26" y="36.907"/><use xlink:href="#27" y="41.249"/><use xlink:href="#28" y="43.42"/><use xlink:href="#29" y="45.591"/><use xlink:href="#30" y="49.933"/><use xlink:href="#31" y="52.104"/><use xlink:href="#32" y="54.275"/><use xlink:href="#33" y="56.446"/><use xlink:href="#34" y="58.617"/><use xlink:href="#35" y="60.788"/><use xlink:href="#36" y="62.959"/></svg><svg x="720"><use xlink:href="#a"/><use xlink:href="#b" x="-.004" y="65.105"/><use xlink:href="#18"/><use xlink:href="#19" y="2.171"/><use xlink:href="#20" y="4.342"/><use xlink:href="#21" y="6.513"/><use xlink:href="#22" y="8.684"/><use xlink:href="#23" y="10.855"/><use xlink:href="#24" y="15.197"/><use xlink:href="#25" y="21.71"/><use xlink:href="#26" y="26.052"/><use xlink:href="#27" y="30.394"/><use xlink:href="#28" y="32.565"/><use xlink:href="#29" y="34.736"/><use xlink:href="#30" y="39.078"/><use xlink:href="#31" y="41.249"/><use xlink:href="#32" y="43.42"/><use xlink:href="#33" y="45.591"/><use xlink:href="#34" y="47.762"/><use xlink:href="#35" y="49.933"/><use xlink:href="#36" y="52.104"/><use xlink:href="#37" y="54.275"/><use xlink:href="#38" y="56.446"/><use xlink:href="#39" y="60.788"/><use xlink:href="#40" y="62.959"/></svg><svg x="800"><use xlink:href="#a"/><use xlink:href="#b" x="-.004" y="65.105"/><use xlink:href="#22"/><use xlink:href="#23" y="2.171"/><use xlink:href="#24" y="6.513"/><use xlink:href="#25" y="13.026"/><use xlink:href="#26" y="17.368"/><use xlink:href="#27" y="21.71"/><use xlink:href="#28" y="23.881"/><use xlink:href="#29" y="26.052"/><use xlink:href="#30" y="30.394"/><use xlink:href="#31" y="32.565"/><use xlink:href="#32" y="34.736"/><use xlink:href="#33" y="36.907"/><use xlink:href="#34" y="39.078"/><use xlink:href="#35" y="41.249"/><use xlink:href="#36" y="43.42"/><use xlink:href="#37" y="45.591"/><use xlink:href="#38" y="47.762"/><use xlink:href="#39" y="52.104"/><use xlink:href="#40" y="54.275"/><use xlink:href="#41" y="56.446"/><use xlink:href="#42" y="58.617"/><use xlink:href="#43" y="60.788"/></svg><svg x="880"><use xlink:href="#a"/><use xlink:href="#b" x="-.004" y="65.105"/><use xlink:href="#24" y="2.171"/><use xlink:href="#25" y="8.684"/><use xlink:href="#26" y="13.026"/><use xlink:href="#27" y="17.368"/><use xlink:href="#28" y="19.539"/><use xlink:href="#29" y="21.71"/><use xlink:href="#30" y="26.052"/><use xlink:href="#31" y="28.223"/><use xlink:href="#32" y="30.394"/><use xlink:href="#33" y="32.565"/><use xlink:href="#34" y="34.736"/><use xlink:href="#35" y="36.907"/><use xlink:href="#36" y="39.078"/><use xlink:href="#37" y="41.249"/><use xlink:href="#38" y="43.42"/><use xlink:href="#39" y="47.762"/><use xlink:href="#40" y="49.933"/><use xlink:href="#41" y="52.104"/><use xlink:href="#42" y="54.275"/><use xlink:href="#43" y="56.446"/><use xlink:href="#44" y="60.788"/></svg><svg x="960"><use xlink:href="#a"/><use xlink:href="#b" x="-.004" y="65.105"/><use xlink:href="#25" y="4.342"/><use xlink:href="#26" y="8.684"/><use xlink:href="#27" y="13.026"/><use xlink:href="#28" y="15.197"/><use xlink:href="#29" y="17.368"/><use xlink:href="#30" y="21.71"/><use xlink:href="#31" y="23.881"/><use xlink:href="#32" y="26.052"/><use xlink:href="#33" y="28.223"/><use xlink:href="#34" y="30.394"/><use xlink:href="#35" y="32.565"/><use xlink:href="#36" y="34.736"/><use xlink:href="#37" y="36.907"/><use xlink:href="#38" y="39.078"/><use xlink:href="#39" y="43.42"/><use xlink:href="#40" y="45.591"/><use xlink:href="#41" y="47.762"/><use xlink:href="#42" y="49.933"/><use xlink:href="#43" y="52.104"/><use xlink:href="#44" y="56.446"/><use xlink:href="#45" y="62.959"/></svg><svg x="1040"><use xlink:href="#a"/><use xlink:href="#b" x="-.004" y="65.105"/><use xlink:href="#26" y="2.171"/><use xlink:href="#27" y="6.513"/><use xlink:href="#28" y="8.684"/><use xlink:href="#29" y="10.855"/><use xlink:href="#30" y="15.197"/><use xlink:href="#31" y="17.368"/><use xlink:href="#32" y="19.539"/><use xlink:href="#33" y="21.71"/><use xlink:href="#34" y="23.881"/><use xlink:href="#35" y="26.052"/><use xlink:href="#36" y="28.223"/><use xlink:href="#37" y="30.394"/><use xlink:href="#38" y="32.565"/><use xlink:href="#39" y="36.907"/><use xlink:href="#40" y="39.078"/><use xlink:href="#41" y="41.249"/><use xlink:href="#42" y="43.42"/><use xlink:href="#43" y="45.591"/><use xlink:href="#44" y="49.933"/><use xlink:href="#45" y="56.446"/><use xlink:href="#46" y="60.788"/></svg><svg x="1120"><use xlink:href="#a"/><use xlink:href="#b" x="-.004" y="65.105"/><use xlink:href="#27" y="2.171"/><use xlink:href="#28" y="4.342"/><use xlink:href="#29" y="6.513"/><use xlink:href="#30" y="10.855"/><use xlink:href="#31" y="13.026"/><use xlink:href="#32" y="15.197"/><use xlink:href="#33" y="17.368"/><use xlink:href="#34" y="19.539"/><use xlink:href="#35" y="21.71"/><use xlink:href="#36" y="23.881"/><use xlink:href="#37" y="26.052"/><use xlink:href="#38" y="28.223"/><use xlink:href="#39" y="32.565"/><use xlink:href="#40" y="34.736"/><use xlink:href="#41" y="36.907"/><use xlink:href="#42" y="39.078"/><use xlink:href="#43" y="41.249"/><use xlink:href="#44" y="45.591"/><use xlink:href="#45" y="52.104"/><use xlink:href="#46" y="56.446"/><use xlink:href="#47" y="60.788"/></svg><svg x="1200"><use xlink:href="#a"/><use xlink:href="#b" x="-.004" y="65.105"/><use xlink:href="#27"/><use xlink:href="#28" y="2.171"/><use xlink:href="#29" y="4.342"/><use xlink:href="#30" y="8.684"/><use xlink:href="#31" y="10.855"/><use xlink:href="#32" y="13.026"/><use xlink:href="#33" y="15.197"/><use xlink:href="#34" y="17.368"/><use xlink:href="#35" y="19.539"/><use xlink:href="#36" y="21.71"/><use xlink:href="#37" y="23.881"/><use xlink:href="#38" y="26.052"/><use xlink:href="#39" y="30.394"/><use xlink:href="#40" y="32.565"/><use xlink:href="#41" y="34.736"/><use xlink:href="#42" y="36.907"/><use xlink:href="#43" y="39.078"/><use xlink:href="#44" y="43.42"/><use xlink:href="#45" y="49.933"/><use xlink:href="#46" y="54.275"/><use xlink:href="#47" y="58.617"/><use xlink:href="#48" y="62.959"/></svg><svg x="1280"><use xlink:href="#a"/><use xlink:href="#b" x="-.004" y="65.105"/><use xlink:href="#30" y="2.171"/><use xlink:href="#31" y="4.342"/><use xlink:href="#32" y="6.513"/><use xlink:href="#33" y="8.684"/><use xlink:href="#34" y="10.855"/><use xlink:href="#35" y="13.026"/><use xlink:href="#36" y="15.197"/><use xlink:href="#37" y="17.368"/><use xlink:href="#38" y="19.539"/><use xlink:href="#39" y="23.881"/><use xlink:href="#40" y="26.052"/><use xlink:href="#41" y="28.223"/><use xlink:href="#42" y="30.394"/><use xlink:href="#43" y="32.565"/><use xlink:href="#44" y="36.907"/><use xlink:href="#45" y="43.42"/><use xlink:href="#46" y="47.762"/><use xlink:href="#47" y="52.104"/><use xlink:href="#48" y="56.446"/><use xlink:href="#49" y="58.617"/><use xlink:href="#50" y="60.788"/></svg><svg x="1360"><use xlink:href="#a"/><use xlink:href="#b" x="-.004" y="65.105"/><use xlink:href="#44" y="2.171"/><use xlink:href="#45" y="8.684"/><use xlink:href="#46" y="13.026"/><use xlink:href="#47" y="17.368"/><use xlink:href="#48" y="21.71"/><use xlink:href="#49" y="23.881"/><use xlink:href="#50" y="26.052"/><use xlink:href="#51" y="30.394"/><use xlink:href="#52" y="34.736"/><use xlink:href="#53" y="36.907"/><use xlink:href="#54" y="39.078"/><use xlink:href="#55" y="41.249"/><use xlink:href="#56" y="43.42"/><use xlink:href="#57" y="47.762"/><use xlink:href="#58" y="52.104"/><use xlink:href="#59" y="56.446"/><use xlink:href="#60" y="58.617"/><use xlink:href="#61" y="62.959"/></svg><svg x="1440"><use xlink:href="#a"/><use xlink:href="#b" x="-.004" y="65.105"/><use xlink:href="#45"/><use xlink:href="#46" y="4.342"/><use xlink:href="#47" y="8.684"/><use xlink:href="#48" y="13.026"/><use xlink:href="#49" y="15.197"/><use xlink:href="#50" y="17.368"/><use xlink:href="#51" y="21.71"/><use xlink:href="#52" y="26.052"/><use xlink:href="#53" y="28.223"/><use xlink:href="#54" y="30.394"/><use xlink:href="#55" y="32.565"/><use xlink:href="#56" y="34.736"/><use xlink:href="#57" y="39.078"/><use xlink:href="#58" y="43.42"/><use xlink:href="#59" y="47.762"/><use xlink:href="#60" y="49.933"/><use xlink:href="#61" y="54.275"/><use xlink:href="#62" y="56.446"/><use xlink:href="#63" y="58.617"/><use xlink:href="#64" y="60.788"/><use xlink:href="#65" y="62.959"/></svg><svg x="1520"><use xlink:href="#a"/><use xlink:href="#b" x="-.004" y="65.105"/><use xlink:href="#46"/><use xlink:href="#47" y="4.342"/><use xlink:href="#48" y="8.684"/><use xlink:href="#49" y="10.855"/><use xlink:href="#50" y="13.026"/><use xlink:href="#51" y="17.368"/><use xlink:href="#52" y="21.71"/><use xlink:href="#53" y="23.881"/><use xlink:href="#54" y="26.052"/><use xlink:href="#55" y="28.223"/><use xlink:href="#56" y="30.394"/><use xlink:href="#57" y="34.736"/><use xlink:href="#58" y="39.078"/><use xlink:href="#59" y="43.42"/><use xlink:href="#60" y="45.591"/><use xlink:href="#61" y="49.933"/><use xlink:href="#62" y="52.104"/><use xlink:href="#63" y="54.275"/><use xlink:href="#64" y="56.446"/><use xlink:href="#65" y="58.617"/><use xlink:href="#66" y="60.788"/></svg><svg x="1600"><use xlink:href="#a"/><use xlink:href="#b" x="-.004" y="65.105"/><use xlink:href="#48" y="2.171"/><use xlink:href="#49" y="4.342"/><use xlink:href="#50" y="6.513"/><use xlink:href="#51" y="10.855"/><use xlink:href="#52" y="15.197"/><use xlink:href="#53" y="17.368"/><use xlink:href="#54" y="19.539"/><use xlink:href="#55" y="21.71"/><use xlink:href="#56" y="23.881"/><use xlink:href="#57" y="28.223"/><use xlink:href="#58" y="32.565"/><use xlink:href="#59" y="36.907"/><use xlink:href="#60" y="39.078"/><use xlink:href="#61" y="43.42"/><use xlink:href="#62" y="45.591"/><use xlink:href="#63" y="47.762"/><use xlink:href="#64" y="49.933"/><use xlink:href="#65" y="52.104"/><use xlink:href="#66" y="54.275"/><use xlink:href="#67" y="60.788"/></svg><svg x="1680"><use xlink:href="#a"/><use xlink:href="#b" x="-.004" y="65.105"/><use xlink:href="#48"/><use xlink:href="#49" y="2.171"/><use xlink:href="#50" y="4.342"/><use xlink:href="#51" y="8.684"/><use xlink:href="#52" y="13.026"/><use xlink:href="#53" y="15.197"/><use xlink:href="#54" y="17.368"/><use xlink:href="#55" y="19.539"/><use xlink:href="#56" y="21.71"/><use xlink:href="#57" y="26.052"/><use xlink:href="#58" y="30.394"/><use xlink:href="#59" y="34.736"/><use xlink:href="#60" y="36.907"/><use xlink:href="#61" y="41.249"/><use xlink:href="#62" y="43.42"/><use xlink:href="#63" y="45.591"/><use xlink:href="#64" y="47.762"/><use xlink:href="#65" y="49.933"/><use xlink:href="#66" y="52.104"/><use xlink:href="#67" y="58.617"/><use xlink:href="#68" y="62.959"/></svg><svg x="1760"><use xlink:href="#a"/><use xlink:href="#b" x="-.004" y="65.105"/><use xlink:href="#51"/><use xlink:href="#52" y="4.342"/><use xlink:href="#53" y="6.513"/><use xlink:href="#54" y="8.684"/><use xlink:href="#55" y="10.855"/><use xlink:href="#56" y="13.026"/><use xlink:href="#57" y="17.368"/><use xlink:href="#58" y="21.71"/><use xlink:href="#59" y="26.052"/><use xlink:href="#60" y="28.223"/><use xlink:href="#61" y="32.565"/><use xlink:href="#62" y="34.736"/><use xlink:href="#63" y="36.907"/><use xlink:href="#64" y="39.078"/><use xlink:href="#65" y="41.249"/><use xlink:href="#66" y="43.42"/><use xlink:href="#67" y="49.933"/><use xlink:href="#68" y="54.275"/><use xlink:href="#69" y="56.446"/><use xlink:href="#70" y="60.788"/></svg><svg x="1840"><use xlink:href="#a"/><use xlink:href="#b" x="-.004" y="65.105"/><use xlink:href="#52"/><use xlink:href="#53" y="2.171"/><use xlink:href="#54" y="4.342"/><use xlink:href="#55" y="6.513"/><use xlink:href="#56" y="8.684"/><use xlink:href="#57" y="13.026"/><use xlink:href="#58" y="17.368"/><use xlink:href="#59" y="21.71"/><use xlink:href="#60" y="23.881"/><use xlink:href="#61" y="28.223"/><use xlink:href="#62" y="30.394"/><use xlink:href="#63" y="32.565"/><use xlink:href="#64" y="34.736"/><use xlink:href="#65" y="36.907"/><use xlink:href="#66" y="39.078"/><use xlink:href="#67" y="45.591"/><use xlink:href="#68" y="49.933"/><use xlink:href="#69" y="52.104"/><use xlink:href="#70" y="56.446"/><use xlink:href="#71" y="60.788"/><use xlink:href="#72" y="62.959"/></svg><svg x="1920"><use xlink:href="#a"/><use xlink:href="#b" x="-.004" y="65.105"/><use xlink:href="#54"/><use xlink:href="#55" y="2.171"/><use xlink:href="#56" y="4.342"/><use xlink:href="#57" y="8.684"/><use xlink:href="#58" y="13.026"/><use xlink:href="#59" y="17.368"/><use xlink:href="#60" y="19.539"/><use xlink:href="#61" y="23.881"/><use xlink:href="#62" y="26.052"/><use xlink:href="#63" y="28.223"/><use xlink:href="#64" y="30.394"/><use xlink:href="#65" y="32.565"/><use xlink:href="#66" y="34.736"/><use xlink:href="#67" y="41.249"/><use xlink:href="#68" y="45.591"/><use xlink:href="#69" y="47.762"/><use xlink:href="#70" y="52.104"/><use xlink:href="#71" y="56.446"/><use xlink:href="#72" y="58.617"/><use xlink:href="#73" y="60.788"/><use xlink:href="#74" y="62.959"/></svg><svg x="2000"><use xlink:href="#a"/><use xlink:href="#b" x="-.004" y="65.105"/><use xlink:href="#56"/><use xlink:href="#57" y="4.342"/><use xlink:href="#58" y="8.684"/><use xlink:href="#59" y="13.026"/><use xlink:href="#60" y="15.197"/><use xlink:href="#61" y="19.539"/><use xlink:href="#62" y="21.71"/><use xlink:href="#63" y="23.881"/><use xlink:href="#64" y="26.052"/><use xlink:href="#65" y="28.223"/><use xlink:href="#66" y="30.394"/><use xlink:href="#67" y="36.907"/><use xlink:href="#68" y="41.249"/><use xlink:href="#69" y="43.42"/><use xlink:href="#70" y="47.762"/><use xlink:href="#71" y="52.104"/><use xlink:href="#72" y="54.275"/><use xlink:href="#73" y="56.446"/><use xlink:href="#74" y="58.617"/><use xlink:href="#75" y="62.959"/></svg><svg x="2080"><use xlink:href="#a"/><use xlink:href="#b" x="-.004" y="65.105"/><use xlink:href="#58"/><use xlink:href="#59" y="4.342"/><use xlink:href="#60" y="6.513"/><use xlink:href="#61" y="10.855"/><use xlink:href="#62" y="13.026"/><use xlink:href="#63" y="15.197"/><use xlink:href="#64" y="17.368"/><use xlink:href="#65" y="19.539"/><use xlink:href="#66" y="21.71"/><use xlink:href="#67" y="28.223"/><use xlink:href="#68" y="32.565"/><use xlink:href="#69" y="34.736"/><use xlink:href="#70" y="39.078"/><use xlink:href="#71" y="43.42"/><use xlink:href="#72" y="45.591"/><use xlink:href="#73" y="47.762"/><use xlink:href="#74" y="49.933"/><use xlink:href="#75" y="54.275"/><use xlink:href="#76" y="58.617"/><use xlink:href="#77" y="62.959"/></svg><svg x="2160"><use xlink:href="#a"/><use xlink:href="#b" x="-.004" y="65.105"/><use xlink:href="#69"/><use xlink:href="#70" y="4.342"/><use xlink:href="#71" y="8.684"/><use xlink:href="#72" y="10.855"/><use xlink:href="#73" y="13.026"/><use xlink:href="#74" y="15.197"/><use xlink:href="#75" y="19.539"/><use xlink:href="#76" y="23.881"/><use xlink:href="#77" y="28.223"/><use xlink:href="#8" y="30.394"/><use xlink:href="#78" y="32.565"/><use xlink:href="#79" y="34.736"/><use xlink:href="#80" y="36.907"/><use xlink:href="#81" y="39.078"/><use xlink:href="#82" y="41.249"/><use xlink:href="#83" y="43.42"/><use xlink:href="#84" y="45.591"/><use xlink:href="#85" y="47.762"/><use xlink:href="#81" y="49.933"/><use xlink:href="#86" y="52.104"/><use xlink:href="#87" y="54.275"/><use xlink:href="#88" y="56.446"/><use xlink:href="#89" y="58.617"/><use xlink:href="#90" y="60.788"/><use xlink:href="#23" y="62.959"/></svg><svg x="2240"><use xlink:href="#a"/><use xlink:href="#b" x="-.004" y="65.105"/><use xlink:href="#8"/><use xlink:href="#78" y="2.171"/><use xlink:href="#79" y="4.342"/><use xlink:href="#80" y="6.513"/><use xlink:href="#81" y="8.684"/><use xlink:href="#82" y="10.855"/><use xlink:href="#83" y="13.026"/><use xlink:href="#84" y="15.197"/><use xlink:href="#85" y="17.368"/><use xlink:href="#81" y="19.539"/><use xlink:href="#86" y="21.71"/><use xlink:href="#87" y="23.881"/><use xlink:href="#88" y="26.052"/><use xlink:href="#89" y="28.223"/><use xlink:href="#90" y="30.394"/><use xlink:href="#23" y="32.565"/><use xlink:href="#1" y="36.907"/><use xlink:href="#2" y="39.078"/><use xlink:href="#91" y="41.249"/><use xlink:href="#2" y="43.42"/><use xlink:href="#92" y="45.591"/><use xlink:href="#93" y="47.762"/><use xlink:href="#94" y="49.933"/><use xlink:href="#95" y="52.104"/><use xlink:href="#96" y="54.275"/><use xlink:href="#2" y="56.446"/><use xlink:href="#97" y="58.617"/><use xlink:href="#2" y="60.788"/><use xlink:href="#6" y="62.959"/></svg><svg x="2320"><use xlink:href="#a"/><use xlink:href="#b" x="-.004" y="65.105"/><use xlink:href="#78"/><use xlink:href="#79" y="2.171"/><use xlink:href="#80" y="4.342"/><use xlink:href="#81" y="6.513"/><use xlink:href="#82" y="8.684"/><use xlink:href="#83" y="10.855"/><use xlink:href="#84" y="13.026"/><use xlink:href="#85" y="15.197"/><use xlink:href="#81" y="17.368"/><use xlink:href="#86" y="19.539"/><use xlink:href="#87" y="21.71"/><use xlink:href="#88" y="23.881"/><use xlink:href="#89" y="26.052"/><use xlink:href="#90" y="28.223"/><use xlink:href="#23" y="30.394"/><use xlink:href="#1" y="34.736"/><use xlink:href="#2" y="36.907"/><use xlink:href="#91" y="39.078"/><use xlink:href="#2" y="41.249"/><use xlink:href="#92" y="43.42"/><use xlink:href="#93" y="45.591"/><use xlink:href="#94" y="47.762"/><use xlink:href="#95" y="49.933"/><use xlink:href="#96" y="52.104"/><use xlink:href="#2" y="54.275"/><use xlink:href="#97" y="56.446"/><use xlink:href="#2" y="58.617"/><use xlink:href="#6" y="60.788"/></svg></svg></g></g></svg></svg>